<?xml version="1.0" encoding="UTF-8"?>
<svg version="1.1" xmlns="http://www.w3.org/2000/svg" width="487" height="435">
<path d="M0 0 C1.175625 0.9590625 1.175625 0.9590625 2.375 1.9375 C3.18517578 2.58368286 3.18517578 2.58368286 4.01171875 3.24291992 C5.88847848 5.57576185 5.67703215 7.02449669 5.5625 9.98828125 C5.53696045 10.99012451 5.5114209 11.99196777 5.48510742 13.02416992 C5.44877197 14.08869385 5.41243652 15.15321777 5.375 16.25 C5.00960079 38.76292967 11.52930361 57.9899118 27.05200195 74.65722656 C35.52159098 83.40316904 45.47206616 88.84415865 56.375 93.9375 C55.73269859 98.2628715 54.13909563 101.73203522 52.3125 105.6875 C46.75096191 118.89144605 48.46925606 131.95284175 53.59228516 145.03515625 C57.49896396 154.53011609 62.46065138 162.9180377 68.45703125 171.1953125 C70.00614396 173.41013352 71.26574241 175.48422131 72.375 177.9375 C73.035 177.9375 73.695 177.9375 74.375 177.9375 C75.78515625 179.37109375 75.78515625 179.37109375 77.4375 181.375 C81.49896369 186.1602046 85.90082195 190.54135994 90.375 194.9375 C91.37610681 195.93639197 92.37658102 196.93592147 93.375 197.9375 C77.94280968 203.08156344 56.61139978 196.94605117 41.375 192.9375 C40.5490332 192.73560059 39.72306641 192.53370117 38.87207031 192.32568359 C27.79379229 189.60849629 17.6658626 185.47308926 7.375 180.5625 C6.26543945 180.03333984 5.15587891 179.50417969 4.01269531 178.95898438 C-7.51710875 173.27863194 -17.78210163 166.16610589 -27.625 157.9375 C-28.15883301 157.49921875 -28.69266602 157.0609375 -29.24267578 156.609375 C-60.16580252 131.19358469 -82.48329461 95.28174118 -90.625 55.9375 C-90.81191406 55.05320312 -90.99882813 54.16890625 -91.19140625 53.2578125 C-92.48524528 45.38582345 -89.80569837 39.4048326 -85.4375 32.9375 C-76.0821285 20.3009126 -65.54849239 11.39080684 -52 3.5625 C-50.67609253 2.79425903 -50.67609253 2.79425903 -49.32543945 2.01049805 C-33.97076014 -6.63107934 -15.79287674 -10.17501263 0 0 Z " fill="#F2AA56" transform="translate(156.625,211.0625)"/>
<path d="M0 0 C41.66943934 -1.28579984 82.96575628 11.25958159 116 37 C116.89074219 37.66902344 117.78148437 38.33804688 118.69921875 39.02734375 C152.06493303 65.0117042 177.01100257 104.38295074 184.55078125 146.19140625 C185.72977497 156.18722257 180.59750618 162.93798756 174.74609375 170.59765625 C168.23297032 178.8212505 160.86141066 185.41374559 152 191 C151.06285156 191.59683594 150.12570312 192.19367188 149.16015625 192.80859375 C134.93910932 201.49819535 120.10311538 206.65818438 103.45703125 203.28125 C100.47999615 202.34550259 97.78874061 201.40240702 95 200 C94.37931641 199.70375732 93.75863281 199.40751465 93.11914062 199.10229492 C91.00890326 197.90293418 89.5538336 196.87187451 88 195 C87.20044528 191.52643013 87.48938063 188.22198067 87.75 184.6875 C87.8193711 182.69826328 87.87790492 180.70862008 87.92578125 178.71875 C87.94979004 177.74292969 87.97379883 176.76710937 87.99853516 175.76171875 C88.0091175 155.810474 78.09165213 136.29839747 64.5625 122.125 C56.07048146 114.10150662 46.45408899 108.95590098 36 104 C37.23048797 100.85786108 38.55488414 97.79829126 40 94.75 C45.65295932 81.96756214 45.19296281 69.10406306 40.28369141 56.10302734 C32.09413109 35.5361205 19.70950846 17.96503726 2.375 4 C1.59125 3.34 0.8075 2.68 0 2 C0 1.34 0 0.68 0 0 Z " fill="#F3AB57" transform="translate(236,48)"/>
<path d="M0 0 C0.99 0.495 0.99 0.495 2 1 C2.88082628 25.51633136 -2.2295783 50.52918362 -12 73 C-12.29100586 73.67933594 -12.58201172 74.35867188 -12.88183594 75.05859375 C-22.08126917 96.28056672 -35.10722417 114.32410188 -51 131 C-51.76570312 131.83015625 -52.53140625 132.6603125 -53.3203125 133.515625 C-75.26910591 156.58045875 -112.61057285 179.4131608 -145 181.4375 C-155.47319384 181.28272374 -164.53459865 173.64829275 -172 167 C-172.72574219 166.37996094 -173.45148438 165.75992188 -174.19921875 165.12109375 C-184.24024682 155.90930678 -192.83185546 142.5933971 -198 130 C-198.58201172 128.64455078 -198.58201172 128.64455078 -199.17578125 127.26171875 C-202.85626438 117.71269895 -203.94241155 107.24890531 -200.3125 97.5 C-199.58585195 95.97810426 -198.81652931 94.47562323 -198 93 C-197.62617188 92.29746094 -197.25234375 91.59492188 -196.8671875 90.87109375 C-195.6875 88.9375 -195.6875 88.9375 -193 86 C-188.56367347 85.0190483 -184.35299321 84.96006366 -179.84912109 85.1171875 C-157.20799241 85.83295534 -136.98136321 77.17054889 -120.375 61.8125 C-112.73498577 53.76941547 -107.01553036 43.81470451 -102 34 C-99.54583283 34.97297955 -97.10095367 35.95656447 -94.67578125 37 C-77.2617871 44.36856612 -62.69412902 41.59829667 -45.45751953 35.00585938 C-28.03219427 27.87369764 -11.91536422 14.40571365 0 0 Z " fill="#90D8C8" transform="translate(422,225)"/>
<path d="M0 0 C18.73419728 13.74974379 34.30621836 33.85518574 39.4765625 56.88671875 C40.50341977 66.53917706 39.10415932 76.18796158 33.6640625 84.51171875 C30.20383345 88.77933458 30.20383345 88.77933458 27.42919922 89.07958984 C25.96377686 89.08853271 25.96377686 89.08853271 24.46875 89.09765625 C23.38384277 89.11513916 22.29893555 89.13262207 21.18115234 89.15063477 C20.0205127 89.16666748 18.85987305 89.1827002 17.6640625 89.19921875 C-3.5870736 89.80006502 -22.26231559 95.15817832 -38.2109375 109.82421875 C-38.98953125 110.52289063 -39.768125 111.2215625 -40.5703125 111.94140625 C-48.91188676 119.80711889 -55.56929255 129.89928389 -59.2109375 140.82421875 C-62.47752348 140.4158955 -64.97351367 139.49233613 -67.8359375 137.94921875 C-80.56229171 131.40696537 -92.8045811 131.62080059 -106.2109375 135.82421875 C-127.41421727 142.64424276 -149.58786996 155.88961744 -162.2109375 174.82421875 C-162.8709375 174.82421875 -163.5309375 174.82421875 -164.2109375 174.82421875 C-165.7845354 130.88004037 -149.86294335 86.08357475 -120.3984375 53.26171875 C-119.00338526 51.78181539 -117.60762252 50.30258125 -116.2109375 48.82421875 C-115.08131517 47.49479927 -113.95614438 46.16158157 -112.8359375 44.82421875 C-91.54022071 20.56266013 -61.47940626 5.3366368 -30.9609375 -3.67578125 C-30.10371094 -3.93149902 -29.24648437 -4.1872168 -28.36328125 -4.45068359 C-17.53722939 -7.47899456 -9.3935014 -6.36518282 0 0 Z " fill="#73B6D7" transform="translate(226.2109375,58.17578125)"/>
<path d="M0 0 C2.4375 0.8125 2.4375 0.8125 4.4375 2.8125 C5.05127714 5.6552573 5.56234489 8.44237044 6 11.3125 C6.19505127 12.533927 6.19505127 12.533927 6.39404297 13.7800293 C7.18108075 18.81155682 7.82402812 23.83487899 8.2578125 28.91015625 C8.47934198 31.2554792 8.92676894 33.51421023 9.4375 35.8125 C9.77567105 37.8116877 10.10948698 39.81162055 10.4375 41.8125 C10.77523437 40.54792969 11.11296875 39.28335938 11.4609375 37.98046875 C11.91117054 36.32023443 12.36170721 34.66008243 12.8125 33 C13.03421875 32.16662109 13.2559375 31.33324219 13.484375 30.47460938 C13.81308594 29.27094727 13.81308594 29.27094727 14.1484375 28.04296875 C14.44693604 26.93538208 14.44693604 26.93538208 14.75146484 25.80541992 C15.4375 23.8125 15.4375 23.8125 17.4375 20.8125 C20.1875 20.0625 20.1875 20.0625 23.4375 20.8125 C26.11934 23.83412063 29.4375 27.63079121 29.4375 31.8125 C30.4275 31.4825 31.4175 31.1525 32.4375 30.8125 C34.8125 30.79296875 34.8125 30.79296875 37.4375 31 C38.30375 31.05542969 39.17 31.11085937 40.0625 31.16796875 C43.06388361 31.98248897 43.85139616 33.20899402 45.4375 35.8125 C43.5625 39.6875 43.5625 39.6875 42.4375 40.8125 C40.87577255 40.89935603 39.31020656 40.91952219 37.74609375 40.91015625 C36.80185547 40.90693359 35.85761719 40.90371094 34.88476562 40.90039062 C33.89154297 40.89201172 32.89832031 40.88363281 31.875 40.875 C30.87791016 40.87048828 29.88082031 40.86597656 28.85351562 40.86132812 C26.38145151 40.84950007 23.90950482 40.83301849 21.4375 40.8125 C21.24115967 41.57916992 21.04481934 42.34583984 20.8425293 43.13574219 C19.94613591 46.61384335 19.03573962 50.08812913 18.125 53.5625 C17.6619043 55.37234375 17.6619043 55.37234375 17.18945312 57.21875 C16.88330078 58.37890625 16.57714844 59.5390625 16.26171875 60.734375 C15.98416748 61.80268555 15.70661621 62.87099609 15.4206543 63.97167969 C14.45352281 66.76620216 13.34737187 68.57999872 11.4375 70.8125 C9.125 70.8125 9.125 70.8125 6.4375 69.8125 C2.76803611 62.32067789 1.98304737 53.97784902 0.75 45.8125 C0.52356594 44.35534741 0.29635885 42.89831472 0.06835938 41.44140625 C-0.48418448 37.89977631 -1.02623308 34.35663556 -1.5625 30.8125 C-3.98666742 35.33485422 -4.83886594 40.14564982 -5.79882812 45.14453125 C-6.26953125 47.2578125 -6.26953125 47.2578125 -7.5625 50.8125 C-10.19921875 52.3046875 -10.19921875 52.3046875 -12.5625 52.8125 C-15.42234547 50.29617951 -16.97718822 47.47364447 -18.75 44.125 C-19.27980469 43.13113281 -19.80960938 42.13726562 -20.35546875 41.11328125 C-20.95294922 39.97439453 -20.95294922 39.97439453 -21.5625 38.8125 C-22.5525 39.4725 -23.5425 40.1325 -24.5625 40.8125 C-27.27534871 41.03378109 -29.85169386 41.13705875 -32.5625 41.125 C-33.64917969 41.14916992 -33.64917969 41.14916992 -34.7578125 41.17382812 C-40.01797773 41.17868068 -40.01797773 41.17868068 -42.578125 39.45703125 C-43.5625 37.8125 -43.5625 37.8125 -43.3125 35.1875 C-42.5625 32.8125 -42.5625 32.8125 -41.5625 31.8125 C-39.68797423 31.62031676 -37.81286497 31.43381369 -35.9375 31.25 C-29.85125354 30.32762136 -27.30088787 28.34815234 -23.671875 23.4921875 C-23.30578125 22.93789062 -22.9396875 22.38359375 -22.5625 21.8125 C-20.20703125 22.05859375 -20.20703125 22.05859375 -17.5625 22.8125 C-16.19921875 24.66015625 -16.19921875 24.66015625 -15.25 26.875 C-14.92386719 27.60847656 -14.59773438 28.34195313 -14.26171875 29.09765625 C-14.03097656 29.66355469 -13.80023438 30.22945312 -13.5625 30.8125 C-10.86312237 22.31360067 -10.86312237 22.31360067 -8.51171875 13.71484375 C-8.34188477 13.04332275 -8.17205078 12.37180176 -7.99707031 11.67993164 C-7.51941067 9.76530474 -7.05435636 7.84754645 -6.58984375 5.9296875 C-5.2860069 1.97355895 -4.40398225 -0.3222426 0 0 Z " fill="#F4C851" transform="translate(241.5625,204.1875)"/>
<path d="M0 0 C2.9375 0.375 2.9375 0.375 6 1 C6.33 1.66 6.66 2.32 7 3 C7.99 3.33 8.98 3.66 10 4 C10.27429625 9.39449293 10.36055646 12.51925805 7 17 C4.25 16.9375 4.25 16.9375 1 16 C-1.55898289 12.98350199 -3 10.00866157 -3 6 C-2.01 6 -1.02 6 0 6 C0 4.02 0 2.04 0 0 Z " fill="#F7C948" transform="translate(226,236)"/>
<path d="M0 0 C2.8992226 0.46761655 3.86675182 0.86675182 6 3 C5.66337193 6.8518019 4.32326127 9.5903955 2.25 12.8125 C1.51523437 13.99779297 1.51523437 13.99779297 0.765625 15.20703125 C-1 17 -1 17 -3.703125 17.26171875 C-4.46109375 17.17535156 -5.2190625 17.08898437 -6 17 C-7.20703125 14.859375 -7.20703125 14.859375 -8 12 C-6.69921875 9.140625 -6.69921875 9.140625 -4.6875 6.25 C-3.70330078 4.80367187 -3.70330078 4.80367187 -2.69921875 3.328125 C-1 1 -1 1 0 0 Z " fill="#F7CD58" transform="translate(264,184)"/>
<path d="M0 0 C2.6171875 0.41796875 2.6171875 0.41796875 4.671875 2.4296875 C5.27257812 3.31269531 5.87328125 4.19570312 6.4921875 5.10546875 C7.10835937 5.97558594 7.72453125 6.84570312 8.359375 7.7421875 C9.82898211 10.86852561 9.71249237 12.19415904 8.6171875 15.41796875 C7.6171875 16.41796875 7.6171875 16.41796875 5.2578125 16.7421875 C2.6171875 16.41796875 2.6171875 16.41796875 0.8515625 14.625 C0.36171875 13.83480469 -0.128125 13.04460937 -0.6328125 12.23046875 C-1.13296875 11.45316406 -1.633125 10.67585937 -2.1484375 9.875 C-3.43333586 7.31740169 -4.13362354 5.26926549 -4.3828125 2.41796875 C-2.3828125 0.41796875 -2.3828125 0.41796875 0 0 Z " fill="#F4CA56" transform="translate(218.3828125,184.58203125)"/>
<path d="M0 0 C1.875 0.75 1.875 0.75 2.875 2.75 C2.99783119 5.08093612 3.05054232 7.41586039 3.0625 9.75 C3.07667969 11.008125 3.09085938 12.26625 3.10546875 13.5625 C2.875 16.75 2.875 16.75 0.875 18.75 C-3.68055556 18.19444444 -3.68055556 18.19444444 -5.125 16.75 C-5.27813272 14.2557035 -5.35656517 11.80811507 -5.375 9.3125 C-5.395625 8.61833984 -5.41625 7.92417969 -5.4375 7.20898438 C-5.453125 5.19140625 -5.453125 5.19140625 -5.125 1.75 C-2.125 -0.25 -2.125 -0.25 0 0 Z " fill="#F0CF68" transform="translate(243.125,176.25)"/>
<path d="M0 0 C0.33 1.65 0.66 3.3 1 5 C-3.02212286 8.3785832 -7.49553036 11.21777997 -12.875 10.75 C-15 10 -15 10 -16 9 C-16.04063832 7.33382885 -16.042721 5.66611905 -16 4 C-14.27921959 3.1290621 -12.54793677 2.27885442 -10.8125 1.4375 C-9.84957031 0.96183594 -8.88664062 0.48617187 -7.89453125 -0.00390625 C-4.72281223 -1.0953885 -3.16301775 -0.96567452 0 0 Z " fill="#F2CF68" transform="translate(285,204)"/>
<path d="M0 0 C5.08360514 0.24207644 9.86966087 2.03714391 14 5 C15.125 7.625 15.125 7.625 15 10 C13 12 13 12 10.70703125 12.28125 C7.54383216 11.95260594 5.48568348 10.99236452 2.6875 9.5 C1.80449219 9.0359375 0.92148438 8.571875 0.01171875 8.09375 C-0.98408203 7.55234375 -0.98408203 7.55234375 -2 7 C-2.125 4.625 -2.125 4.625 -2 2 C-1.34 1.34 -0.68 0.68 0 0 Z " fill="#F1CE63" transform="translate(200,203)"/>
<path d="M0 0 C2 3.75 2 3.75 2 6 C1.38125 6.515625 0.7625 7.03125 0.125 7.5625 C-2.52068449 10.59725573 -2.72872099 12.93806692 -3.4296875 16.8125 C-4.21933811 19.84129685 -5.92234852 21.71458337 -8 24 C-8 24.66 -8 25.32 -8 26 C-7.34 26.33 -6.68 26.66 -6 27 C-6 27.66 -6 28.32 -6 29 C-7.65 29.66 -9.3 30.32 -11 31 C-12.4522814 27.56264758 -11.6153266 25.28414835 -10.25830078 21.92211914 C-9.85200439 20.97067017 -9.85200439 20.97067017 -9.4375 20 C-9.16663574 19.34443115 -8.89577148 18.6888623 -8.61669922 18.01342773 C-6.03365793 11.86251415 -3.10158464 5.90620905 0 0 Z " fill="#79B2CA" transform="translate(83,145)"/>
<path d="M0 0 C0.33 0 0.66 0 1 0 C2.32388229 6.43028541 3.24794402 12.4294834 3 19 C2.67 18.34 2.34 17.68 2 17 C1.01 17 0.02 17 -1 17 C-1 17.66 -1 18.32 -1 19 C-1.66 19 -2.32 19 -3 19 C-3 22.63 -3 26.26 -3 30 C-3.33 30 -3.66 30 -4 30 C-4.3396019 28.12612523 -4.67138691 26.25083303 -5 24.375 C-5.185625 23.33085937 -5.37125 22.28671875 -5.5625 21.2109375 C-5.98715797 18.09425135 -6.07545206 15.14069188 -6 12 C-5.195625 12.185625 -4.39125 12.37125 -3.5625 12.5625 C-2.716875 12.706875 -1.87125 12.85125 -1 13 C0.31262571 11.91447634 0.31262571 11.91447634 0.09765625 9.27734375 C0.08605469 8.17519531 0.07445312 7.07304687 0.0625 5.9375 C0.05347656 4.83277344 0.04445312 3.72804687 0.03515625 2.58984375 C0.02355469 1.73519531 0.01195312 0.88054687 0 0 Z " fill="#EFC55D" transform="translate(248,229)"/>
<path d="M0 0 C0.66 0.99 1.32 1.98 2 3 C3.32 2.34 4.64 1.68 6 1 C6 1.99 6 2.98 6 4 C5.34 4.66 4.68 5.32 4 6 C4.66 6.66 5.32 7.32 6 8 C6 9.32 6 10.64 6 12 C7.32 12.66 8.64 13.32 10 14 C6.44842089 14 4.51236245 13.00581762 1.3125 11.5 C-0.17830078 10.80390625 -0.17830078 10.80390625 -1.69921875 10.09375 C-2.45847656 9.7328125 -3.21773438 9.371875 -4 9 C-2.78534783 5.92254092 -1.52352768 2.93823196 0 0 Z " fill="#EAAC61" transform="translate(276,143)"/>
<path d="M0 0 C2.86724686 0.57344937 3.8614515 0.8614515 6 3 C5.66337193 6.8518019 4.32326127 9.5903955 2.25 12.8125 C1.51523437 13.99779297 1.51523437 13.99779297 0.765625 15.20703125 C-1 17 -1 17 -3.703125 17.26171875 C-4.46109375 17.17535156 -5.2190625 17.08898437 -6 17 C-5.34 16.34 -4.68 15.68 -4 15 C-3.01 15 -2.02 15 -1 15 C-1.33 13.35 -1.66 11.7 -2 10 C-1.01 9.38125 -1.01 9.38125 0 8.75 C0.66 8.1725 1.32 7.595 2 7 C2 5.68 2 4.36 2 3 C0.68 3.33 -0.64 3.66 -2 4 C-1.34 2.68 -0.68 1.36 0 0 Z " fill="#F0CF69" transform="translate(264,184)"/>
<path d="M0 0 C0.495 0.99 0.495 0.99 1 2 C-2.75 7.75 -2.75 7.75 -5 10 C-8.07275391 10.31884766 -8.07275391 10.31884766 -11.9765625 10.4140625 C-13.00443375 10.44311172 -13.00443375 10.44311172 -14.05307007 10.4727478 C-16.24358644 10.53256831 -18.4341553 10.57893756 -20.625 10.625 C-22.10939802 10.66317763 -23.59377384 10.70222924 -25.078125 10.7421875 C-28.71854685 10.83827084 -32.35913436 10.92229282 -36 11 C-36.33 10.34 -36.66 9.68 -37 9 C-30.88573087 7.9069463 -24.94891326 7.91822014 -18.75 8 C-16.78651339 8.02549983 -14.82296229 8.04653588 -12.859375 8.0625 C-11.56725098 8.07990234 -11.56725098 8.07990234 -10.24902344 8.09765625 C-7.82938678 8.09578197 -7.82938678 8.09578197 -5 7 C-4.31867549 5.33927151 -3.65257873 3.672233 -3 2 C-2.01 1.34 -1.02 0.68 0 0 Z " fill="#7EAFC5" transform="translate(261,137)"/>
<path d="M0 0 C0.33 0.66 0.66 1.32 1 2 C3.06277107 1.85805236 5.12521031 1.71127784 7.1875 1.5625 C8.33605469 1.48128906 9.48460937 1.40007812 10.66796875 1.31640625 C13.51598171 1.04596188 16.21210482 0.62478253 19 0 C19 0.66 19 1.32 19 2 C19.66 2.33 20.32 2.66 21 3 C20.67 3.66 20.34 4.32 20 5 C18.906875 4.835 17.81375 4.67 16.6875 4.5 C8.39833774 3.47483859 0.25633992 3.91720132 -8 5 C-8 4.34 -8 3.68 -8 3 C-7.05125 2.690625 -6.1025 2.38125 -5.125 2.0625 C-2.13919592 1.12605258 -2.13919592 1.12605258 0 0 Z " fill="#7EB2CC" transform="translate(131,187)"/>
<path d="M0 0 C5.61 0 11.22 0 17 0 C17 0.33 17 0.66 17 1 C12.38 1 7.76 1 3 1 C4.16536531 2.16536531 5.3313193 3.33014703 6.5 4.4921875 C7.53124713 5.52880571 8.55156022 6.57638043 9.5625 7.6328125 C12.81037174 11.01645334 12.81037174 11.01645334 17 13 C17.33 14.65 17.66 16.3 18 18 C13.63264759 14.31201352 9.32639138 10.55711969 5.0625 6.75 C4.10472656 5.89921875 3.14695313 5.0484375 2.16015625 4.171875 C0 2 0 2 0 0 Z " fill="#E0A566" transform="translate(236,48)"/>
<path d="M0 0 C-5.98582953 2.97779904 -11.88727524 4.88090732 -18.3984375 6.38671875 C-21.09036727 6.98005629 -21.09036727 6.98005629 -24 8 C-26.1875 7.5625 -26.1875 7.5625 -28 7 C-24.0891223 5.62869384 -20.17051762 4.28097257 -16.25 2.9375 C-15.13882813 2.54755859 -14.02765625 2.15761719 -12.8828125 1.75585938 C-11.81289062 1.39169922 -10.74296875 1.02753906 -9.640625 0.65234375 C-8.16384277 0.14175415 -8.16384277 0.14175415 -6.65722656 -0.37915039 C-3.94479951 -1.01289736 -2.5806975 -0.94500645 0 0 Z " fill="#77ACC3" transform="translate(201,55)"/>
<path d="M0 0 C0.33 0 0.66 0 1 0 C1.66 2.31 2.32 4.62 3 7 C4.32 7.33 5.64 7.66 7 8 C7 8.99 7 9.98 7 11 C7.99 10.67 8.98 10.34 10 10 C10.33 10.99 10.66 11.98 11 13 C12.87387216 13.80212628 12.87387216 13.80212628 15.0625 14.1875 C15.79597656 14.34605469 16.52945312 14.50460938 17.28515625 14.66796875 C17.85105469 14.77753906 18.41695313 14.88710937 19 15 C15.57246497 16.20196364 13.87837172 15.84786315 10.625 14.3125 C9.07572756 13.55706964 7.53363843 12.786685 6 12 C4.2365625 11.13375 4.2365625 11.13375 2.4375 10.25 C0 8 0 8 -0.36328125 5.96875 C-0.375 3.75 -0.375 3.75 0 0 Z " fill="#E8B263" transform="translate(324,235)"/>
<path d="M0 0 C1.7717719 0.06016203 3.54258679 0.14899328 5.3125 0.25 C6.79169922 0.31960937 6.79169922 0.31960937 8.30078125 0.390625 C11 1 11 1 12.85546875 3.046875 C13.23316406 3.69140625 13.61085938 4.3359375 14 5 C12.125 8.875 12.125 8.875 11 10 C8.32941149 10.14115161 5.67567762 10.04247107 3 10 C3 9.34 3 8.68 3 8 C5.64 7.67 8.28 7.34 11 7 C10.67 5.68 10.34 4.36 10 3 C6.7 2.67 3.4 2.34 0 2 C0 1.34 0 0.68 0 0 Z " fill="#EFCC6B" transform="translate(273,235)"/>
<path d="M0 0 C-1.24687592 0.96239452 -2.49764969 1.91974009 -3.75 2.875 C-4.44609375 3.40867188 -5.1421875 3.94234375 -5.859375 4.4921875 C-9.11402012 6.784693 -12.12403871 8.15213347 -16 9 C-17.11375 9.2784375 -17.11375 9.2784375 -18.25 9.5625 C-18.8275 9.706875 -19.405 9.85125 -20 10 C-16.85647586 6.51663541 -13.55486955 4.41247217 -9.4375 2.1875 C-8.30183594 1.56230469 -7.16617188 0.93710938 -5.99609375 0.29296875 C-3 -1 -3 -1 0 0 Z " fill="#E8AB60" transform="translate(118,210)"/>
<path d="M0 0 C4.0081803 3.67416528 6.52591615 7.14346504 9 12 C9 12.66 9 13.32 9 14 C7.68 13.67 6.36 13.34 5 13 C4.67 13.66 4.34 14.32 4 15 C3.34 14.34 2.68 13.68 2 13 C2 11.68 2 10.36 2 9 C2.66 9 3.32 9 4 9 C3.34 7.02 2.68 5.04 2 3 C1.34 3 0.68 3 0 3 C0 2.01 0 1.02 0 0 Z " fill="#78B3C9" transform="translate(248,81)"/>
<path d="M0 0 C-2.51596403 2.74468803 -5.33127167 4.71008886 -8.4375 6.75 C-9.85869141 7.70132813 -9.85869141 7.70132813 -11.30859375 8.671875 C-14 10 -14 10 -16.34765625 9.703125 C-17.16556641 9.35507813 -17.16556641 9.35507813 -18 9 C-16.20963542 8.05598958 -14.41927083 7.11197917 -12.62890625 6.16796875 C-10.67732013 5.00980201 -10.67732013 5.00980201 -10 2 C-6.37953098 -0.81592035 -4.38787365 -1.37904601 0 0 Z " fill="#76B2C8" transform="translate(208,153)"/>
<path d="M0 0 C0.66 0.33 1.32 0.66 2 1 C1.29875 1.639375 0.5975 2.27875 -0.125 2.9375 C-3.13860302 5.92549167 -5.28281292 9.35368282 -7.57421875 12.90625 C-9.15285907 15.2244725 -10.89969015 17.14203359 -13 19 C-13.66 18.67 -14.32 18.34 -15 18 C-13.44209679 15.93388759 -11.87890323 13.87215361 -10.3125 11.8125 C-9.87744141 11.23435547 -9.44238281 10.65621094 -8.99414062 10.06054688 C-6.21748365 6.42004107 -3.30894756 3.16585793 0 0 Z " fill="#77ADC5" transform="translate(111,106)"/>
<path d="M0 0 C4.75 -0.125 4.75 -0.125 7 1 C6.814375 1.556875 6.62875 2.11375 6.4375 2.6875 C5.92448835 5.399133 6.3359276 7.34371039 7 10 C7.99 10.33 8.98 10.66 10 11 C9.34 11.66 8.68 12.32 8 13 C6.84962529 11.3990869 5.70485184 9.79414775 4.5625 8.1875 C3.92441406 7.29417969 3.28632812 6.40085937 2.62890625 5.48046875 C1 3 1 3 0 0 Z " fill="#E8A85F" transform="translate(88,321)"/>
<path d="M0 0 C-1 2 -1 2 -3.8125 3 C-4.864375 3.33 -5.91625 3.66 -7 4 C-7.70125 4.37125 -8.4025 4.7425 -9.125 5.125 C-11 6 -11 6 -15 6 C-15 5.34 -15 4.68 -15 4 C-10.56021517 0.77106558 -5.38569603 -1.79523201 0 0 Z " fill="#F4A74A" transform="translate(128,208)"/>
<path d="M0 0 C0.99 0.33 1.98 0.66 3 1 C3 3.97 3 6.94 3 10 C1.02 9.34 -0.96 8.68 -3 8 C-3 6.68 -3 5.36 -3 4 C-2.34 4 -1.68 4 -1 4 C-0.67 2.68 -0.34 1.36 0 0 Z " fill="#F4CC58" transform="translate(242,176)"/>
<path d="M0 0 C2.33088789 2.87854637 3.83224797 5.61984828 5.1875 9.0625 C5.53167969 9.91972656 5.87585938 10.77695313 6.23046875 11.66015625 C7 14 7 14 7 17 C5.68 16.67 4.36 16.34 3 16 C2.87625 14.96875 2.7525 13.9375 2.625 12.875 C2.0602165 9.37334228 1.13961508 6.34287091 0 3 C0 2.01 0 1.02 0 0 Z " fill="#72AEC5" transform="translate(257,95)"/>
<path d="M0 0 C1 3 1 3 -0.1875 6.125 C-2 9 -2 9 -4.1875 9.875 C-5.0846875 9.936875 -5.0846875 9.936875 -6 10 C-5.34 8.68 -4.68 7.36 -4 6 C-4.66 6 -5.32 6 -6 6 C-6 5.01 -6 4.02 -6 3 C-4.02 2.01 -2.04 1.02 0 0 Z " fill="#F1CD6D" transform="translate(256,265)"/>
<path d="M0 0 C0.33 0 0.66 0 1 0 C2.32388229 6.43028541 3.24794402 12.4294834 3 19 C2.67 18.34 2.34 17.68 2 17 C1.01 17 0.02 17 -1 17 C-1.33 16.01 -1.66 15.02 -2 14 C-1.34 13.34 -0.68 12.68 0 12 C0.24339551 9.10116917 0.24339551 9.10116917 0.125 5.875 C0.10695312 4.77929688 0.08890625 3.68359375 0.0703125 2.5546875 C0.04710937 1.71164063 0.02390625 0.86859375 0 0 Z " fill="#EFCB68" transform="translate(248,229)"/>
<path d="M0 0 C0.33 0.66 0.66 1.32 1 2 C1.99 2 2.98 2 4 2 C4.33 1.34 4.66 0.68 5 0 C4.71848084 2.12636813 4.42446737 4.25108528 4.125 6.375 C3.96257812 7.55835938 3.80015625 8.74171875 3.6328125 9.9609375 C3 13 3 13 1 15 C1.03255208 12.94921875 1.06510417 10.8984375 1.09765625 8.84765625 C1.20561184 6.98267859 1.20561184 6.98267859 0 6 C-0.04080783 4.00041636 -0.04254356 1.99954746 0 0 Z " fill="#EDCB63" transform="translate(234,232)"/>
<path d="M0 0 C0.33 0 0.66 0 1 0 C1.33 3.96 1.66 7.92 2 12 C4.50816459 9.49183541 5.61410019 8.09162264 7 5 C7.99 6.485 7.99 6.485 9 8 C7.88200014 9.33920838 6.75538103 10.67122556 5.625 12 C4.68527344 13.11375 4.68527344 13.11375 3.7265625 14.25 C3.15679687 14.8275 2.58703125 15.405 2 16 C1.34 16 0.68 16 0 16 C0 10.72 0 5.44 0 0 Z " fill="#7BAEC7" transform="translate(62,217)"/>
<path d="M0 0 C1.2065625 0.0309375 1.2065625 0.0309375 2.4375 0.0625 C3.7575 2.3725 5.0775 4.6825 6.4375 7.0625 C4.7875 7.3925 3.1375 7.7225 1.4375 8.0625 C1.7675 6.4125 2.0975 4.7625 2.4375 3.0625 C0.02104218 2.89562552 0.02104218 2.89562552 -2.5625 3.0625 C-3.2225 3.7225 -3.8825 4.3825 -4.5625 5.0625 C-3.43829114 0.08386076 -3.43829114 0.08386076 0 0 Z " fill="#EFCB6C" transform="translate(218.5625,184.9375)"/>
<path d="M0 0 C1.61823648 2.49502642 2.04531242 3.6614017 1.64453125 6.65625 C1.36996094 7.5946875 1.09539062 8.533125 0.8125 9.5 C0.41998047 10.90765625 0.41998047 10.90765625 0.01953125 12.34375 C-0.99666406 14.99130865 -2.18836427 16.83624353 -4 19 C-3.37968409 12.42465139 -1.85102717 6.33307408 0 0 Z " fill="#7BAEC2" transform="translate(70,175)"/>
<path d="M0 0 C0.99 0.33 1.98 0.66 3 1 C3.33 2.65 3.66 4.3 4 6 C4.99 6.33 5.98 6.66 7 7 C7 9.64 7 12.28 7 15 C4.66302971 12.66302971 3.72905946 10.50902101 2.375 7.5 C1.92898438 6.5203125 1.48296875 5.540625 1.0234375 4.53125 C0 2 0 2 0 0 Z " fill="#E2A55E" transform="translate(270,88)"/>
<path d="M0 0 C5.68502535 1.64566523 10.76681636 4.29032784 16 7 C16 7.33 16 7.66 16 8 C14.02 8 12.04 8 10 8 C10 7.34 10 6.68 10 6 C9.0925 5.71125 8.185 5.4225 7.25 5.125 C4.67797092 4.23468224 2.38653234 3.28505587 0 2 C0 1.34 0 0.68 0 0 Z " fill="#E6AD6D" transform="translate(313,63)"/>
<path d="M0 0 C0.75 1.75 0.75 1.75 1 4 C-0.6875 6.3125 -0.6875 6.3125 -3 8 C-5.1875 7.9375 -5.1875 7.9375 -7 7 C-7.33 6.01 -7.66 5.02 -8 4 C-5.50935112 3.31292445 -3.62113708 3 -1 3 C-0.67 2.01 -0.34 1.02 0 0 Z " fill="#F0CF6F" transform="translate(234,249)"/>
<path d="M0 0 C0.33 0 0.66 0 1 0 C1 3.63 1 7.26 1 11 C-0.98 11.99 -0.98 11.99 -3 13 C-2.45144652 8.428721 -1.58255197 4.32564205 0 0 Z " fill="#F0C75E" transform="translate(236,209)"/>
<path d="M0 0 C2 2 2 2 3.9375 4.5625 C5.83558225 7.2340535 5.83558225 7.2340535 9 8 C9.33 9.98 9.66 11.96 10 14 C6 10 2 6 -2 2 C-1.34 1.34 -0.68 0.68 0 0 Z " fill="#E0AA68" transform="translate(300,166)"/>
<path d="M0 0 C0.5534764 2.07553648 1 3.84365964 1 6 C1.66 6.33 2.32 6.66 3 7 C3 7.66 3 8.32 3 9 C1.35 9.66 -0.3 10.32 -2 11 C-2.95465783 8.83032311 -3.14401212 7.43671207 -2.3984375 5.17578125 C-1.64129615 3.4315257 -0.82390802 1.71372869 0 0 Z " fill="#6FACC9" transform="translate(74,165)"/>
<path d="M0 0 C0.66 0.33 1.32 0.66 2 1 C1.34 2.32 0.68 3.64 0 5 C4.13574827 5.0984702 7.93631321 4.77403558 12 4 C5.85148515 8.0990099 5.85148515 8.0990099 2.3125 7.6875 C0 7 0 7 -1 6 C-1.125 3.5 -1.125 3.5 -1 1 C-0.67 0.67 -0.34 0.34 0 0 Z " fill="#EBCA72" transform="translate(270,207)"/>
<path d="M0 0 C1.65 0.33 3.3 0.66 5 1 C-0.14285714 7.57142857 -0.14285714 7.57142857 -4 9 C-4 8.01 -4 7.02 -4 6 C-3.01 5.34 -2.02 4.68 -1 4 C-0.27617533 1.94074861 -0.27617533 1.94074861 0 0 Z " fill="#75ACC8" transform="translate(81,209)"/>
<path d="M0 0 C0.99 0.33 1.98 0.66 3 1 C1.70984254 2.62619848 0.41782303 4.25091983 -0.875 5.875 C-1.95394531 7.23238281 -1.95394531 7.23238281 -3.0546875 8.6171875 C-5 11 -5 11 -7 13 C-7.3125 10.8125 -7.3125 10.8125 -7 8 C-4.625 5.375 -4.625 5.375 -2 3 C-1.34 2.01 -0.68 1.02 0 0 Z " fill="#7EB0C5" transform="translate(179,173)"/>
<path d="M0 0 C2.475 0.99 2.475 0.99 5 2 C3.70700306 4.88437779 2.34058637 6.87219421 0 9 C0.33 7.35 0.66 5.7 1 4 C0.34 4 -0.32 4 -1 4 C-0.67 2.68 -0.34 1.36 0 0 Z " fill="#EBAE63" transform="translate(410,209)"/>
<path d="M0 0 C5.61 0 11.22 0 17 0 C17 0.33 17 0.66 17 1 C12.38 1 7.76 1 3 1 C3.66 2.65 4.32 4.3 5 6 C3.2925002 4.71937515 1.62626404 3.38232443 0 2 C0 1.34 0 0.68 0 0 Z " fill="#E1AC72" transform="translate(236,48)"/>
<path d="M0 0 C0.66 0.99 1.32 1.98 2 3 C1.401875 3.226875 0.80375 3.45375 0.1875 3.6875 C-2.56351888 5.33811133 -3.52484637 7.1972081 -5 10 C-5.99 9.67 -6.98 9.34 -8 9 C-7.04270084 7.87411986 -6.08412105 6.7493285 -5.125 5.625 C-4.59132813 4.99851562 -4.05765625 4.37203125 -3.5078125 3.7265625 C-2.38567993 2.44163349 -1.20628025 1.20628025 0 0 Z " fill="#94D1C2" transform="translate(305,283)"/>
<path d="M0 0 C1.65 0 3.3 0 5 0 C5 1.32 5 2.64 5 4 C2.69 4.33 0.38 4.66 -2 5 C-1.34 3.35 -0.68 1.7 0 0 Z " fill="#F9CB57" transform="translate(279,205)"/>
<path d="M0 0 C0.99 0 1.98 0 3 0 C3.33 1.98 3.66 3.96 4 6 C1.03 5.505 1.03 5.505 -2 5 C-1.125 1.125 -1.125 1.125 0 0 Z " fill="#F6CC4F" transform="translate(272,207)"/>
<path d="M0 0 C2 1 2 1 2.8515625 3.28515625 C3.10679687 4.20167969 3.36203125 5.11820313 3.625 6.0625 C3.88539063 6.98160156 4.14578125 7.90070313 4.4140625 8.84765625 C4.60742188 9.55792969 4.80078125 10.26820313 5 11 C3.5 9.625 3.5 9.625 2 8 C2 7.34 2 6.68 2 6 C1.01 6 0.02 6 -1 6 C-1.33 5.01 -1.66 4.02 -2 3 C-1.34 3 -0.68 3 0 3 C0 2.01 0 1.02 0 0 Z " fill="#E9AB62" transform="translate(407,156)"/>
<path d="M0 0 C4.38889325 0.66498383 7.9811485 2.18757677 12 4 C12 4.33 12 4.66 12 5 C10.35 5 8.7 5 7 5 C7 4.34 7 3.68 7 3 C4.36 3.33 1.72 3.66 -1 4 C-0.34 3.67 0.32 3.34 1 3 C0.67 2.01 0.34 1.02 0 0 Z " fill="#E9AD67" transform="translate(300,58)"/>
<path d="M0 0 C2.625 0.375 2.625 0.375 5 1 C5 1.33 5 1.66 5 2 C7.31 2.33 9.62 2.66 12 3 C12 3.33 12 3.66 12 4 C2.58997722 4.3690205 2.58997722 4.3690205 -2 2 C-1.34 1.34 -0.68 0.68 0 0 Z " fill="#91D1BE" transform="translate(269,402)"/>
<path d="M0 0 C2.475 0.495 2.475 0.495 5 1 C5 1.66 5 2.32 5 3 C5.61875 3.268125 6.2375 3.53625 6.875 3.8125 C9 5 9 5 11 8 C6.40378078 6.5129879 3.53027653 4.20187872 0 1 C0 0.67 0 0.34 0 0 Z " fill="#94CFC0" transform="translate(254,394)"/>
<path d="M0 0 C0.66 0.66 1.32 1.32 2 2 C1.63723355 4.82957829 0.90305236 7.29084291 0 10 C-3.05059524 5.60714286 -3.05059524 5.60714286 -2.8125 2.75 C-2 1 -2 1 0 0 Z " fill="#E8A75D" transform="translate(84,305)"/>
<path d="M0 0 C2.74554724 2.37115444 3.95117186 4.53079925 5 8 C5.125 11.3125 5.125 11.3125 5 14 C3.37723842 11.56585763 2.38255208 9.68680554 1.375 7 C0.98441406 5.9790625 0.98441406 5.9790625 0.5859375 4.9375 C0 3 0 3 0 0 Z " fill="#E8A965" transform="translate(72,285)"/>
<path d="M0 0 C0.99 0.33 1.98 0.66 3 1 C2.75 2.875 2.75 2.875 2 5 C-0.0625 6.25 -0.0625 6.25 -2 7 C-2 5.02 -2 3.04 -2 1 C-1.34 0.67 -0.68 0.34 0 0 Z " fill="#79B5CC" transform="translate(67,193)"/>
<path d="M0 0 C0.33 0.66 0.66 1.32 1 2 C0.67 2.66 0.34 3.32 0 4 C-0.66 4 -1.32 4 -2 4 C-2 8.29 -2 12.58 -2 17 C-2.33 17 -2.66 17 -3 17 C-3.08076963 14.54101345 -3.14037143 12.08466258 -3.1875 9.625 C-3.21263672 8.92632812 -3.23777344 8.22765625 -3.26367188 7.5078125 C-3.29296875 5.4765625 -3.29296875 5.4765625 -3 2 C-2.01 1.34 -1.02 0.68 0 0 Z " fill="#EBCF7D" transform="translate(241,176)"/>
<path d="M0 0 C2.63978826 3.18595135 5.10498388 6.30970546 7 10 C6.67 10.66 6.34 11.32 6 12 C5.67 11.01 5.34 10.02 5 9 C4.01 9 3.02 9 2 9 C2 7.35 2 5.7 2 4 C1.34 4 0.68 4 0 4 C0 2.68 0 1.36 0 0 Z " fill="#E4AA6A" transform="translate(395,133)"/>
<path d="M0 0 C2.16321167 3.24481751 3.6314591 6.35055759 5 10 C4.67 10.99 4.34 11.98 4 13 C2 12 2 12 0.875 8.75 C0.14536518 5.62299365 -0.19234975 3.17377095 0 0 Z " fill="#E1A763" transform="translate(207,350)"/>
<path d="M0 0 C3.59147806 1.33397757 6.8843916 2.74983838 10 5 C10.8125 7.1875 10.8125 7.1875 11 9 C8.03469503 7.64199529 5.70868729 6.07571737 3.25 3.9375 C2.63640625 3.41027344 2.0228125 2.88304687 1.390625 2.33984375 C0.93171875 1.89769531 0.4728125 1.45554687 0 1 C0 0.67 0 0.34 0 0 Z " fill="#E4A86B" transform="translate(117,358)"/>
<path d="M0 0 C0.99 0.33 1.98 0.66 3 1 C2.01 2.485 2.01 2.485 1 4 C0.34 4 -0.32 4 -1 4 C-1.33 5.98 -1.66 7.96 -2 10 C-2.66 9.67 -3.32 9.34 -4 9 C-2.94124926 5.59687262 -1.99097846 2.98646769 0 0 Z " fill="#90CFBF" transform="translate(320,259)"/>
<path d="M0 0 C0 3.19633438 -0.33810135 4.34096216 -2 7 C-4.125 8.75 -4.125 8.75 -6 10 C-6.66 9.67 -7.32 9.34 -8 9 C-5.36 6.03 -2.72 3.06 0 0 Z " fill="#E1A85E" transform="translate(83,230)"/>
<path d="M0 0 C0.99 0 1.98 0 3 0 C4.75 2.375 4.75 2.375 6 5 C5.67 5.66 5.34 6.32 5 7 C3.29115995 5.37660195 1.62553283 3.70680947 0 2 C0 1.34 0 0.68 0 0 Z " fill="#F1C266" transform="translate(221,227)"/>
<path d="M0 0 C2.15377564 2.62198774 3.40072174 4.64404172 4 8 C0.60085025 6.86695008 -0.05254451 5.87481525 -2 3 C-1.34 2.01 -0.68 1.02 0 0 Z " fill="#E7A85D" transform="translate(402,145)"/>
<path d="M0 0 C1.14926266 0.95421808 2.29430541 1.91352045 3.4375 2.875 C4.07558594 3.40867187 4.71367187 3.94234375 5.37109375 4.4921875 C7 6 7 6 8 8 C6.35 8 4.7 8 3 8 C1.92474806 5.34771188 0.90543849 2.71631546 0 0 Z " fill="#76AFC6" transform="translate(233,64)"/>
<path d="M0 0 C1.1875 1.6875 1.1875 1.6875 1.1875 3.6875 C-4.5625 1.9375 -4.5625 1.9375 -6.8125 -0.3125 C-2.28877737 -1.65739051 -2.28877737 -1.65739051 0 0 Z " fill="#E3AC62" transform="translate(159.8125,385.3125)"/>
<path d="M0 0 C0.6875 1.6875 0.6875 1.6875 1 4 C-0.25 6.6875 -0.25 6.6875 -2 9 C-2.99 9.33 -3.98 9.66 -5 10 C-3.66511872 6.40608886 -2.03977277 3.24509304 0 0 Z " fill="#99D2C7" transform="translate(315,268)"/>
<path d="M0 0 C1.98 0 3.96 0 6 0 C6 0.33 6 0.66 6 1 C4.35 1.33 2.7 1.66 1 2 C1 3.65 1 5.3 1 7 C-0.32 6.67 -1.64 6.34 -3 6 C-2.01 4.02 -1.02 2.04 0 0 Z " fill="#F2CD76" transform="translate(259,225)"/>
<path d="M0 0 C0.66 0.66 1.32 1.32 2 2 C1.64700993 5.44165321 0.95418308 7.06872538 -1 10 C-2.25 3.375 -2.25 3.375 0 0 Z " fill="#EFB04B" transform="translate(282,126)"/>
<path d="M0 0 C3.63 0.33 7.26 0.66 11 1 C11 1.33 11 1.66 11 2 C6.545 2.495 6.545 2.495 2 3 C2 2.34 2 1.68 2 1 C1.34 0.67 0.68 0.34 0 0 Z " fill="#63B8D5" transform="translate(212,55)"/>
<path d="M0 0 C0.99 0 1.98 0 3 0 C5.07639763 2.87501211 6.3543999 5.51375944 7 9 C4.03595495 6.19195732 1.55500981 3.81684226 0 0 Z " fill="#9BCBBF" transform="translate(232,369)"/>
<path d="M0 0 C0.66 0.33 1.32 0.66 2 1 C2 2.65 2 4.3 2 6 C1.01 6.495 1.01 6.495 0 7 C-0.66 6.67 -1.32 6.34 -2 6 C-1.34 4.02 -0.68 2.04 0 0 Z " fill="#EFB043" transform="translate(397,225)"/>
<path d="M0 0 C0.66 0 1.32 0 2 0 C2 0.66 2 1.32 2 2 C2.66 2 3.32 2 4 2 C4.33 2.99 4.66 3.98 5 5 C3.0625 5.5625 3.0625 5.5625 1 6 C0 5 0 5 -0.0625 2.4375 C-0.041875 1.633125 -0.02125 0.82875 0 0 Z " fill="#FACF5C" transform="translate(240,188)"/>
<path d="M0 0 C0.33 0.66 0.66 1.32 1 2 C1.66 2.33 2.32 2.66 3 3 C2.67 3.66 2.34 4.32 2 5 C0.35 4.67 -1.3 4.34 -3 4 C-2.67 3.01 -2.34 2.02 -2 1 C-1.34 0.67 -0.68 0.34 0 0 Z " fill="#70AECB" transform="translate(149,187)"/>
<path d="M0 0 C-2.97 1.65 -5.94 3.3 -9 5 C-6.64389875 0.2877975 -5.23968794 -1.74656265 0 0 Z " fill="#82ACBF" transform="translate(97,204)"/>
<path d="M0 0 C0.66 0.33 1.32 0.66 2 1 C-1.465 3.97 -1.465 3.97 -5 7 C-5 5.68 -5 4.36 -5 3 C-4.01 3 -3.02 3 -2 3 C-2 2.34 -2 1.68 -2 1 C-1.34 0.67 -0.68 0.34 0 0 Z " fill="#78AFC5" transform="translate(189,164)"/>
<path d="M0 0 C0.66 0.99 1.32 1.98 2 3 C0.35 4.98 -1.3 6.96 -3 9 C-3.66 8.67 -4.32 8.34 -5 8 C-3.35 5.36 -1.7 2.72 0 0 Z " fill="#72ADC5" transform="translate(93,128)"/>
</svg>

